<?xml version="1.0" encoding="utf-8"?>
<!-- Generator: Adobe Illustrator 19.0.0, SVG Export Plug-In . SVG Version: 6.00 Build 0)  -->
<svg version="1.1" id="Layer_1" xmlns="http://www.w3.org/2000/svg" xmlns:xlink="http://www.w3.org/1999/xlink" x="0px" y="0px"
	 viewBox="0 0 739 96" style="enable-background:new 0 0 739 96;" xml:space="preserve">
<style type="text/css">
	.st0{fill:#FFFFFF;stroke:#3F495E;stroke-width:2;stroke-linejoin:round;stroke-miterlimit:10;}
</style>
<g id="XMLID_2_">
	<path id="XMLID_186_" class="st0" d="M77.6,7.6V28h17v12.7h-17v20.7c0,4.7,0.2,7.7,0.7,9c0.4,1.3,1.3,2.4,2.5,3.2
		c1.6,1.1,3.4,1.6,5.4,1.6c3.6,0,7.2-1.3,10.8-4V84c-3.1,1.6-5.8,2.8-8.3,3.4s-5.2,1-8,1c-3.3,0-6.2-0.5-8.7-1.4
		c-2.5-0.9-4.7-2.3-6.4-4c-1.8-1.7-3-3.6-3.7-5.5c-0.7-1.9-1-4.8-1-8.5V40.7h-7.9V29.3c2.8-1,5.2-2.5,7.2-4.4c2-1.9,3.6-4.2,4.8-6.9
		c1.2-2.7,2-6.1,2.5-10.3H77.6z"/>
	<path id="XMLID_188_" class="st0" d="M147.1,65.4l7.2,8.2c-4.1,5.4-8.4,9.2-12.7,11.6c-4.3,2.4-9,3.6-13.9,3.6
		c-8,0-14.8-3.1-20.2-9.2s-8.2-13.5-8.2-22.2c0-5.7,1.2-10.9,3.7-15.7c2.5-4.7,5.9-8.5,10.2-11.1c4.4-2.7,9.3-4,14.8-4
		c3.5,0,6.7,0.6,9.6,1.7c2.9,1.2,5.4,2.8,7.6,4.9c2.2,2.1,3.9,4.7,5.2,7.8c1.3,3,2.2,6.2,2.7,9.4c0.2,1.6,0.3,4.2,0.3,7.7h-35.5
		c0.1,5,1.4,9.1,3.9,12.2c2.5,3.1,5.7,4.7,9.4,4.7c2.4,0,4.9-0.8,7.7-2.4C141.6,71.1,144.4,68.7,147.1,65.4z M136.5,48.2
		c-0.2-2.4-0.7-4.3-1.5-5.6c-0.8-1.4-1.8-2.5-3.1-3.3c-1.3-0.8-2.6-1.2-4-1.2c-1.5,0-2.9,0.4-4.3,1.3c-1.4,0.8-2.5,2-3.3,3.4
		c-0.8,1.4-1.4,3.3-1.6,5.5H136.5z"/>
	<path id="XMLID_191_" class="st0" d="M205.9,64.9l7.8,7.7c-4.1,5.7-8.5,9.8-12.9,12.4c-4.5,2.6-9.2,3.9-14.3,3.9
		c-8.2,0-15-3-20.4-9c-5.5-6-8.2-13.3-8.2-21.9c0-5.8,1.3-11.2,3.8-16c2.5-4.8,6-8.6,10.5-11.3c4.4-2.7,9.7-4,15.7-4
		c7.2,0,13.2,1.9,17.7,5.7c4.6,3.8,6.9,7.8,6.9,12c0,1.8-0.4,3.4-1.1,4.8c-0.7,1.4-1.8,2.6-3.3,3.4c-1.5,0.9-3,1.3-4.7,1.3
		c-1.3,0-2.5-0.3-3.6-0.9c-1.1-0.6-1.9-1.3-2.6-2.3c-0.3-0.4-0.9-1.6-1.8-3.7c-1.2-2.6-2.1-4.3-2.7-5.1s-1.4-1.5-2.3-1.9
		c-0.9-0.5-1.9-0.7-3-0.7c-1.8,0-3.6,0.7-5.2,2c-1.7,1.3-3,3.3-4.1,6c-1.1,2.7-1.6,5.7-1.6,9.1c0,3.7,0.6,6.9,1.9,9.9
		c1.3,2.9,3,5.1,5.1,6.6c2.1,1.5,4.5,2.3,7,2.3c2.5,0,4.9-0.8,7.4-2.3C200.4,71.3,203,68.7,205.9,64.9z"/>
	<path id="XMLID_193_" class="st0" d="M241.3,0v33.1c3.5-2.4,6.6-4.1,9.2-5c2.7-1,5.3-1.5,7.8-1.5c3.3,0,6.3,0.8,8.9,2.4
		c2.6,1.6,4.5,3.6,5.8,6c1.2,2.4,1.8,5.7,1.8,9.7v24.8c0,2.4,0.1,3.9,0.3,4.4c0.3,0.8,0.8,1.3,1.6,1.7c0.5,0.2,1.7,0.3,3.7,0.3h2.5
		v11.5h-31.1V76h1.6c1.5,0,2.5-0.2,3.1-0.5c0.6-0.3,0.9-0.8,1.2-1.3c0.2-0.6,0.3-2,0.3-4.2V49.4c0-2.7-0.1-4.5-0.4-5.4
		c-0.3-0.9-0.8-1.6-1.6-2.2c-0.8-0.6-1.7-0.9-2.9-0.9c-1.6,0-3.4,0.4-5.2,1.1c-1.8,0.8-4,2.1-6.6,4.2v23.7c0,2.3,0.1,3.7,0.3,4.2
		c0.2,0.6,0.6,1,1.2,1.3c0.6,0.3,1.7,0.5,3.3,0.5h1.2v11.5h-30.6V76h3c1.7,0,2.8-0.1,3.3-0.4s0.8-0.7,1.1-1.3
		c0.2-0.6,0.4-1.8,0.4-3.7v-54h-7.7V5.1c2.9-0.2,6.2-0.8,9.8-1.7c3.6-0.9,6.9-2.1,9.8-3.4H241.3z"/>
	<path id="XMLID_195_" class="st0" d="M309.2,7.6V28h17v12.7h-17v20.7c0,4.7,0.2,7.7,0.7,9c0.4,1.3,1.3,2.4,2.5,3.2
		c1.6,1.1,3.4,1.6,5.4,1.6c3.6,0,7.2-1.3,10.8-4V84c-3.1,1.6-5.8,2.8-8.3,3.4s-5.2,1-8,1c-3.3,0-6.2-0.5-8.7-1.4
		c-2.5-0.9-4.7-2.3-6.4-4c-1.8-1.7-3-3.6-3.7-5.5c-0.7-1.9-1-4.8-1-8.5V40.7h-7.9V29.3c2.8-1,5.2-2.5,7.2-4.4c2-1.9,3.6-4.2,4.8-6.9
		c1.2-2.7,2-6.1,2.5-10.3H309.2z"/>
	<path id="XMLID_197_" class="st0" d="M354.3,26.6v8.6c2.8-3.3,5.3-5.6,7.3-6.8c2.1-1.2,4-1.8,5.9-1.8c1.7,0,3.3,0.4,4.6,1.3
		c1.4,0.9,2.4,2.2,3.2,3.8c0.8,1.7,1.2,3.5,1.2,5.4c0,2.5-0.7,4.8-2.2,6.8s-3.5,3-6.2,3c-0.7,0-1.3-0.1-1.9-0.2s-1.7-0.5-3.5-1.2
		c-0.9-0.3-1.7-0.5-2.3-0.5c-0.9,0-2.4,0.7-4.5,2v23.3c0,2,0.1,3.3,0.4,3.9s0.7,1,1.3,1.3c0.6,0.3,1.9,0.4,3.9,0.4h2.3v11.5h-32.5
		V76h2.7c1.9,0,3.2-0.1,3.6-0.4c0.5-0.2,0.8-0.7,1.1-1.3s0.4-1.9,0.4-4V43h-7.8V31.6c5.7-0.4,11.7-2.1,17.9-5H354.3z"/>
	<path id="XMLID_199_" class="st0" d="M408.3,51.4V47c0-2.6-0.2-4.4-0.6-5.4c-0.4-1-1.1-1.8-2.1-2.5c-1-0.7-2.3-1-3.8-1
		c-1.2,0-2.2,0.2-3.2,0.7c-0.9,0.4-1.7,1-2.3,1.7c-0.6,0.7-1.2,2-2,3.9c-0.9,2.5-2.1,4.2-3.4,5.3c-1.3,1.1-2.9,1.6-4.7,1.6
		c-2.2,0-4.1-0.8-5.5-2.4c-1.4-1.6-2.2-3.6-2.2-5.9c0-2.7,0.7-5,2.2-7.1c2-2.7,4.9-5,8.8-6.7c3.9-1.7,8.3-2.6,13.2-2.6
		c4.9,0,9,0.9,12.5,2.7s5.8,3.9,7.2,6.4c1.4,2.5,2,6.3,2,11.3v21.3c0,2.6,0.1,4.3,0.4,5c0.2,0.7,0.8,1.4,1.6,1.9
		c0.8,0.6,1.7,0.8,2.7,0.8c1,0,2.3-0.3,4-1v11.6c-3,1.1-5.9,1.6-8.6,1.6c-3.2,0-6-0.6-8.3-1.8c-2.3-1.2-4.2-3-5.7-5.4
		c-3.5,2.6-6.7,4.4-9.6,5.5c-2.9,1.1-5.6,1.6-8.3,1.6c-5,0-9.1-1.6-12.2-4.8c-3.1-3.2-4.6-7.1-4.6-11.8c0-2.7,0.5-5.1,1.6-7.3
		c1.1-2.2,2.7-4.2,4.8-5.8c2.1-1.7,5.4-3.1,9.9-4.4C396.5,52.9,401.9,52,408.3,51.4z M408.3,61.3c-4.6,0.8-7.9,1.5-9.8,2.3
		c-1.9,0.8-3.3,1.7-4.1,2.9c-0.8,1.2-1.2,2.4-1.2,3.6c0,1.6,0.5,2.9,1.6,4c1.1,1.1,2.5,1.6,4.3,1.6c1.2,0,2.5-0.3,4-1
		c1.5-0.7,3.2-1.7,5.1-3V61.3z"/>
	<path id="XMLID_202_" class="st0" d="M483,64.9l7.8,7.7c-4.1,5.7-8.5,9.8-12.9,12.4c-4.5,2.6-9.2,3.9-14.3,3.9c-8.2,0-15-3-20.4-9
		c-5.5-6-8.2-13.3-8.2-21.9c0-5.8,1.3-11.2,3.8-16c2.5-4.8,6-8.6,10.5-11.3c4.4-2.7,9.7-4,15.7-4c7.2,0,13.2,1.9,17.7,5.7
		c4.6,3.8,6.9,7.8,6.9,12c0,1.8-0.4,3.4-1.1,4.8c-0.7,1.4-1.8,2.6-3.3,3.4c-1.5,0.9-3,1.3-4.7,1.3c-1.3,0-2.5-0.3-3.6-0.9
		c-1.1-0.6-1.9-1.3-2.6-2.3c-0.3-0.4-0.9-1.6-1.8-3.7c-1.2-2.6-2.1-4.3-2.7-5.1s-1.4-1.5-2.3-1.9c-0.9-0.5-1.9-0.7-3-0.7
		c-1.8,0-3.6,0.7-5.2,2c-1.7,1.3-3,3.3-4.1,6c-1.1,2.7-1.6,5.7-1.6,9.1c0,3.7,0.6,6.9,1.9,9.9c1.3,2.9,3,5.1,5.1,6.6
		c2.1,1.5,4.5,2.3,7,2.3c2.5,0,4.9-0.8,7.4-2.3C477.4,71.3,480.1,68.7,483,64.9z"/>
	<path id="XMLID_204_" class="st0" d="M518.4,0v53.6l10.1-9.7c1.1-1,1.7-1.7,1.9-2c0.2-0.3,0.3-0.6,0.3-0.9c0-0.5-0.2-0.9-0.7-1.2
		s-1.5-0.4-3-0.4h-2V28h32.2v11.5c-2.3,0-3.9,0.2-4.7,0.5c-1.1,0.5-3,1.8-5.5,3.9l-10.2,8.4l14.6,19.1c1.5,2,2.7,3.2,3.6,3.7
		c0.9,0.5,2.8,0.7,5.5,0.7v11.5h-32.7V76h1.8c1.3,0,2.2-0.1,2.6-0.4c0.4-0.3,0.6-0.6,0.6-1.1c0-0.6-0.6-1.7-1.7-3.3l-6-8.8l-6.6,5.5
		v3.2c0,1.5,0.1,2.5,0.3,3.1s0.6,1,1.1,1.3c0.5,0.3,1.3,0.5,2.4,0.5h1.8v11.5h-30.3V76c1.1,0,1.9-0.1,2.4-0.1c2,0,3.2-0.1,3.8-0.4
		c0.6-0.3,1-0.8,1.2-1.5c0.2-0.5,0.3-2.2,0.3-5.2V16.6h-7.7V5c6-0.3,12.5-2,19.5-4.9H518.4z"/>
	<path id="XMLID_206_" class="st0" d="M608.1,65.4l7.2,8.2c-4.1,5.4-8.4,9.2-12.7,11.6c-4.3,2.4-9,3.6-13.9,3.6
		c-8,0-14.8-3.1-20.2-9.2s-8.2-13.5-8.2-22.2c0-5.7,1.2-10.9,3.7-15.7c2.5-4.7,5.9-8.5,10.2-11.1c4.4-2.7,9.3-4,14.8-4
		c3.5,0,6.7,0.6,9.6,1.7c2.9,1.2,5.4,2.8,7.6,4.9c2.2,2.1,3.9,4.7,5.2,7.8c1.3,3,2.2,6.2,2.7,9.4c0.2,1.6,0.3,4.2,0.3,7.7h-35.5
		c0.1,5,1.4,9.1,3.9,12.2c2.5,3.1,5.7,4.7,9.4,4.7c2.4,0,4.9-0.8,7.7-2.4C602.6,71.1,605.4,68.7,608.1,65.4z M597.5,48.2
		c-0.2-2.4-0.7-4.3-1.5-5.6c-0.8-1.4-1.8-2.5-3.1-3.3c-1.3-0.8-2.6-1.2-4-1.2c-1.5,0-2.9,0.4-4.3,1.3c-1.4,0.8-2.5,2-3.3,3.4
		c-0.8,1.4-1.4,3.3-1.6,5.5H597.5z"/>
	<path id="XMLID_209_" class="st0" d="M642.2,26.6v8.6c2.8-3.3,5.3-5.6,7.3-6.8c2.1-1.2,4-1.8,5.9-1.8c1.7,0,3.3,0.4,4.6,1.3
		c1.4,0.9,2.4,2.2,3.2,3.8c0.8,1.7,1.2,3.5,1.2,5.4c0,2.5-0.7,4.8-2.2,6.8s-3.5,3-6.2,3c-0.7,0-1.3-0.1-1.9-0.2s-1.7-0.5-3.5-1.2
		c-0.9-0.3-1.7-0.5-2.3-0.5c-0.9,0-2.4,0.7-4.5,2v23.3c0,2,0.1,3.3,0.4,3.9s0.7,1,1.3,1.3c0.6,0.3,1.9,0.4,3.9,0.4h2.3v11.5h-32.5
		V76h2.7c1.9,0,3.2-0.1,3.6-0.4c0.5-0.2,0.8-0.7,1.1-1.3s0.4-1.9,0.4-4V43h-7.8V31.6c5.7-0.4,11.7-2.1,17.9-5H642.2z"/>
</g>
</svg>
